<svg width="480" height="390" viewBox="0 0 480 390" fill="none" xmlns="http://www.w3.org/2000/svg">
<circle cx="15" cy="15" r="15" fill="black" fill-opacity="0.5"/>
<circle cx="105" cy="15" r="15" fill="black" fill-opacity="0.5"/>
<circle cx="195" cy="15" r="15" fill="black" fill-opacity="0.5"/>
<circle cx="285" cy="15" r="15" fill="black" fill-opacity="0.5"/>
<circle cx="375" cy="15" r="15" fill="black" fill-opacity="0.5"/>
<circle cx="465" cy="15" r="15" fill="black" fill-opacity="0.5"/>
<circle cx="15" cy="105" r="15" fill="black" fill-opacity="0.4"/>
<circle cx="105" cy="105" r="15" fill="black" fill-opacity="0.4"/>
<circle cx="195" cy="105" r="15" fill="black" fill-opacity="0.4"/>
<circle cx="285" cy="105" r="15" fill="black" fill-opacity="0.4"/>
<circle cx="375" cy="105" r="15" fill="black" fill-opacity="0.4"/>
<circle cx="465" cy="105" r="15" fill="black" fill-opacity="0.4"/>
<circle cx="15" cy="195" r="15" fill="black" fill-opacity="0.3"/>
<circle cx="105" cy="195" r="15" fill="black" fill-opacity="0.3"/>
<circle cx="195" cy="195" r="15" fill="black" fill-opacity="0.3"/>
<circle cx="285" cy="195" r="15" fill="black" fill-opacity="0.3"/>
<circle cx="375" cy="195" r="15" fill="black" fill-opacity="0.3"/>
<circle cx="465" cy="195" r="15" fill="black" fill-opacity="0.3"/>
<circle cx="15" cy="285" r="15" fill="black" fill-opacity="0.2"/>
<circle cx="105" cy="285" r="15" fill="black" fill-opacity="0.2"/>
<circle cx="195" cy="285" r="15" fill="black" fill-opacity="0.2"/>
<circle cx="285" cy="285" r="15" fill="black" fill-opacity="0.2"/>
<circle cx="375" cy="285" r="15" fill="black" fill-opacity="0.2"/>
<circle cx="465" cy="285" r="15" fill="black" fill-opacity="0.2"/>
<circle cx="15" cy="375" r="15" fill="black" fill-opacity="0.1"/>
<circle cx="105" cy="375" r="15" fill="black" fill-opacity="0.1"/>
<circle cx="195" cy="375" r="15" fill="black" fill-opacity="0.1"/>
<circle cx="285" cy="375" r="15" fill="black" fill-opacity="0.1"/>
<circle cx="375" cy="375" r="15" fill="black" fill-opacity="0.1"/>
<circle cx="465" cy="375" r="15" fill="black" fill-opacity="0.1"/>
</svg>
