<?xml version="1.0" encoding="utf-8"?>
<!-- Generator: Adobe Illustrator 24.0.0, SVG Export Plug-In . SVG Version: 6.00 Build 0)  -->
<svg version="1.1" id="Layer_1" xmlns="http://www.w3.org/2000/svg" xmlns:xlink="http://www.w3.org/1999/xlink" x="0px" y="0px"
	 viewBox="0 0 109.2 111.2" style="enable-background:new 0 0 109.2 111.2;" xml:space="preserve">
<!-- <style type="text/css">
	.st0{fill:#FFFFFF;}
</style> -->
<g>
	<path class="st0" d="M107.7,65.7c-0.3-0.4-0.7-0.6-1.2-0.6H73.8c-0.5,0-1,0.3-1.3,0.7c-3.7,6.4-10.6,10.3-17.9,10.3
		s-14.2-4-17.9-10.3c-0.3-0.5-0.8-0.7-1.3-0.7H2.7c-0.5,0-0.9,0.2-1.2,0.6c-0.3,0.4-0.4,0.8-0.3,1.3c5.4,25,27.8,43.2,53.4,43.2
		S102.7,92,108,67C108.1,66.5,108,66.1,107.7,65.7z"/>
	<path class="st0" d="M108,44.3c-5.4-25-27.8-43.2-53.4-43.2S6.6,19.3,1.2,44.3c-0.1,0.4,0,0.9,0.3,1.3c0.3,0.4,0.7,0.6,1.2,0.6
		h32.8c0.5,0,1-0.3,1.3-0.7C40.4,39,47.3,35,54.6,35c7.3,0,14.2,4,17.9,10.3c0.3,0.5,0.8,0.7,1.3,0.7h32.8c0.5,0,0.9-0.2,1.2-0.6
		C108,45.2,108.1,44.7,108,44.3z"/>
	<path class="st0" d="M54.6,42.5c-7.2,0-13.1,5.9-13.1,13.1s5.9,13.1,13.1,13.1c7.2,0,13.1-5.9,13.1-13.1S61.8,42.5,54.6,42.5z"/>
</g>
</svg>
